<svg id="Layer_1" data-name="Layer 1" xmlns="http://www.w3.org/2000/svg" viewBox="0 0 1000 1000"><defs><style>.cls-1{fill:#fff;}</style></defs><polygon class="cls-1" points="242.06 236.44 573.74 236.44 519.33 330.65 499.62 298.82 459.56 298.82 498.33 366.58 463.14 429.92 386.25 297.72 348.83 297.72 501.56 564.54 465.5 626.83 242.06 236.44"/><path class="cls-1" d="M600.09,455.44,644,453.6,769.67,236.44H586.31l-131,226.05,37.32,66,49.85-84.73,18.58,31.89L470.31,635.38l35.7,62L621.58,493Zm26.56-157.77,18.59,32-40.91,71.51-36.28-.8Z"/><path class="cls-1" d="M498.3,202.45a197.36,197.36,0,0,1,85.45,19.26h62.37a232.13,232.13,0,0,0-295.64,0h62.37A197.36,197.36,0,0,1,498.3,202.45Z"/><path class="cls-1" d="M696.39,393.35c.09,2.44.15,4.89.15,7.34a197,197,0,0,1-58.06,140.18,199.21,199.21,0,0,1-46.19,34.47L565,623.09c95.7-28.65,165.46-117.37,165.46-222.4a232.79,232.79,0,0,0-6.63-55.24Z"/><path class="cls-1" d="M358.12,540.87a197,197,0,0,1-58.06-140.18,201,201,0,0,1,1.68-25.94l-25-43.6a232.2,232.2,0,0,0-10.6,69.54c0,110.28,76.9,202.6,180,226.25l-24.9-43.48A197.84,197.84,0,0,1,358.12,540.87Z"/><path class="cls-1" d="M217.56,748.72H232.9v61.76H222.32v-48l.43,2.72L210.94,803.6H200.66l-11.81-37.51.42-3.57v48H178.69V748.72H194l11.77,41.63Z"/><path class="cls-1" d="M269.19,810.48H257.13V748.72h12.06Z"/><path class="cls-1" d="M293.42,748.72h11.64v61.76H293.42Zm5.18,50.55h36.2v11.21H298.6Z"/><path class="cls-1" d="M373.3,748.72h7.39l23.62,61.76H391.78L377,768.3l-14.78,42.18H349.68ZM361,789.37h32.5v11.22H361Z"/><path class="cls-1" d="M423.44,748.72h11.64v61.76H423.44Zm5.86,50.55h14.83q5.73,0,8.88-2.76t3.14-7.82V770.51a9.89,9.89,0,0,0-3.14-7.82q-3.15-2.76-8.88-2.76H429.3V748.72h14.57a30.51,30.51,0,0,1,13.19,2.59,18.42,18.42,0,0,1,8.31,7.56,23.81,23.81,0,0,1,2.84,12v17.5A23.68,23.68,0,0,1,465.47,800a18.63,18.63,0,0,1-8.22,7.73,29.58,29.58,0,0,1-13.42,2.76H429.3Z"/><path class="cls-1" d="M526.87,748.68H538.5v61.8H526.87Zm4.63,25.74H553a5.61,5.61,0,0,0,3.14-.89,5.87,5.87,0,0,0,2.11-2.55,9.72,9.72,0,0,0,.78-3.83,9.2,9.2,0,0,0-.74-3.82,5.92,5.92,0,0,0-2.1-2.55,5.73,5.73,0,0,0-3.19-.89H531.5V748.68h22.43a17.24,17.24,0,0,1,9,2.29,15.52,15.52,0,0,1,6,6.48,23.27,23.27,0,0,1,0,19.41,15.5,15.5,0,0,1-6,6.48,17.24,17.24,0,0,1-8.94,2.29H531.5Zm13,9.3,12.44-2,16.65,28.71h-14.1Z"/><path class="cls-1" d="M610.61,748.72H618l23.62,61.76H629.09L614.3,768.3l-14.78,42.18H587Zm-12.28,40.65h32.5v11.22h-32.5Z"/><path class="cls-1" d="M668.12,810.23a37.53,37.53,0,0,1-7.94-2.61,30.27,30.27,0,0,1-6.65-4.15l5.39-9.59a26.23,26.23,0,0,0,8.24,4.52,29.66,29.66,0,0,0,9.61,1.59q5.68,0,8.83-1.93a6.07,6.07,0,0,0,3.14-5.46v0a5.35,5.35,0,0,0-1.4-3.91,8.29,8.29,0,0,0-3.65-2.12,43.33,43.33,0,0,0-5.78-1.24,1,1,0,0,0-.23,0,.66.66,0,0,1-.23,0l-.94-.13a57.18,57.18,0,0,1-10.28-2.44,15.1,15.1,0,0,1-6.92-5.14q-2.85-3.68-2.85-10.43v0a18.76,18.76,0,0,1,2.68-10.24,16.88,16.88,0,0,1,7.77-6.48,30.58,30.58,0,0,1,12.32-2.23,31.25,31.25,0,0,1,6.77.77,37,37,0,0,1,6.78,2.2,38.6,38.6,0,0,1,6.29,3.49l-4.93,9.85a31.35,31.35,0,0,0-7.46-3.82,22.43,22.43,0,0,0-7.45-1.36q-5.36,0-8.28,1.76a5.51,5.51,0,0,0-2.94,4.95v0a5.75,5.75,0,0,0,1.53,4.23,9,9,0,0,0,3.78,2.27,57.14,57.14,0,0,0,6.33,1.53l.34.07a1.86,1.86,0,0,1,.34.06,3.52,3.52,0,0,1,.49.11,3.86,3.86,0,0,0,.49.1,52,52,0,0,1,9.79,2.79,15.28,15.28,0,0,1,6.57,5.26q2.63,3.63,2.63,9.92v.09a18,18,0,0,1-2.76,10.11,17.28,17.28,0,0,1-8,6.41,32.84,32.84,0,0,1-12.72,2.21A42.1,42.1,0,0,1,668.12,810.23Z"/><path class="cls-1" d="M713.91,748.72h45.28v11.21H713.91Zm16.82,5h11.64v56.71H730.73Z"/><path class="cls-1" d="M788.69,810.48H776.62V748.72h12.07Z"/><path class="cls-1" d="M812.92,748.72h14.23l23,47.32-1,1.11V748.72h11.13v61.72H845.92L823,763.84l1-1.1v47.7H812.92Z"/></svg>